<svg width="267" height="152" viewBox="0 0 267 152" fill="none" xmlns="http://www.w3.org/2000/svg">
<path d="M149.141 1.6C146.241 3.6 146.341 6.6 149.441 8.6C151.541 9.9 153.641 10.1 163.241 9.5L174.541 8.8L179.841 27.6C182.741 38 185.341 46.9 185.541 47.5C185.741 48 183.341 49.8 180.241 51.5C177.041 53.1 171.341 57.5 167.341 61.5C159.341 69.5 154.541 78.1 152.641 87.8L151.441 94H143.941H136.341L124.141 61.2C117.441 43.2 111.941 28.2 111.941 27.8C111.941 27.4 114.541 27 117.741 26.8C123.341 26.5 123.441 26.5 123.741 23.2C124.241 18.6 121.741 18 101.641 18C83.4414 18 79.9414 18.8 79.9414 22.9C79.9414 26.2 82.0414 27 91.6414 27C96.7414 27 100.941 27.2 100.941 27.5C100.941 28 88.1414 48.8 87.0414 50.2C86.6414 50.6 83.5414 49.9 79.9414 48.6C62.7414 42.4 44.3414 45.3 29.4414 56.5C18.8414 64.5 11.7414 76.5 9.34141 90.4C6.44141 106.8 12.2414 124.4 24.5414 136.6L30.9414 143H17.3414C9.94141 143 2.94141 143.5 1.84141 144C-0.258587 145.2 -0.658586 149 1.14141 150.8C2.04141 151.7 32.8414 152 133.441 152C234.041 152 264.841 151.7 265.741 150.8C267.441 149.1 267.241 146.4 265.341 144.6C264.041 143.3 261.141 143 249.241 143H234.641L238.741 140C243.141 136.8 249.541 128.8 252.741 122.5C259.941 108 259.741 87.8 252.141 73.6C248.041 65.9 236.441 54.6 228.841 51C219.841 46.8 209.141 44.6 200.941 45.4L194.241 46L191.141 34.7C189.441 28.6 187.141 20.5 186.041 16.8L184.041 10L187.241 9.2C189.941 8.5 190.541 7.8 190.741 5.2C191.241 0.599998 188.741 -2.26498e-06 168.641 -2.26498e-06C154.641 -2.26498e-06 150.941 0.299998 149.141 1.6ZM114.441 60.5C118.741 72 123.341 84.3 124.541 87.7L126.941 94H121.041H115.241L114.541 89.7C112.841 78.9 106.441 66.8 98.4414 59.5L94.1414 55.5L99.6414 46.7C102.741 41.8 105.541 38.2 105.941 38.7C106.341 39.1 110.141 48.9 114.441 60.5ZM70.0414 55C76.3414 56.2 80.9414 57.9 80.9414 59.1C80.9414 59.5 75.5414 68.6 68.9414 79.1C53.1414 104.3 52.0414 102.4 82.8414 102.8C109.341 103.1 107.541 102.2 103.841 113.2C95.1414 139.1 64.5414 150.8 40.0414 137.5C33.0414 133.6 25.4414 125.4 21.6414 117.3C18.6414 110.8 18.4414 109.9 18.4414 98.5C18.4414 86.9 18.5414 86.2 21.6414 79.9C30.8414 61.3 50.2414 51.3 70.0414 55ZM215.241 55.5C230.941 59.6 243.441 71.6 247.541 86.6C248.741 91.3 249.141 95.2 248.741 102C248.241 109.9 247.641 112.1 244.541 118.5C236.341 135 220.541 143.9 201.241 142.8C188.041 142 175.741 134.9 167.741 123.3C164.541 118.6 160.941 109.1 160.941 105.3V103H183.741C207.641 103 208.941 102.8 208.941 98.6C208.941 97.4 206.341 87.3 203.041 76C197.941 58 197.441 55.4 198.841 54.8C201.641 53.6 209.341 53.9 215.241 55.5ZM191.841 69.7C193.741 76.2 196.041 84.3 197.041 87.7L198.841 94H179.741H160.641L161.241 89.9C161.941 84.3 166.941 74.6 172.041 68.7C175.741 64.4 184.941 58 187.441 58C188.041 58 189.941 63.3 191.841 69.7ZM97.4414 71.4C100.641 75.6 104.741 85 105.541 90L106.241 94H88.1414H70.0414L78.0414 81.2C82.5414 74.2 86.7414 67.5 87.5414 66.2L89.0414 63.9L91.9414 66C93.6414 67.2 96.0414 69.6 97.4414 71.4ZM151.941 105.4C151.941 106.8 153.041 111.4 154.441 115.7C157.141 124.5 163.141 133.5 170.041 139.3L174.441 143H133.741H93.0414L99.4414 136.5C106.841 128.9 112.441 118.7 114.241 109.2L115.441 103H133.641H151.941V105.4Z" fill="black"/>
<path d="M39.8414 64.7C34.5414 68.2 28.6414 74.8 25.8414 80.2C22.5414 86.7 20.5414 97.6 21.4414 103.7C22.1414 108.2 23.2414 108.8 28.5414 107.4C30.3414 106.9 30.5414 106.1 30.5414 99.1C30.5414 92.6 31.0414 90.4 33.6414 84.9C36.2414 79.4 40.6414 74.5 45.7414 71.5C45.8414 71.4 45.1414 69.4 44.1414 67.2C42.3414 63.1 42.2414 63.1 39.8414 64.7Z" fill="black"/>
<path d="M222.541 67.2C221.641 69.5 221.041 71.4 221.241 71.5C225.341 73.7 230.441 79.2 232.841 84.2C235.541 89.5 235.941 91.4 235.941 98.5C235.941 106.2 236.041 106.8 238.241 107.4C243.941 108.9 244.641 108.4 245.141 102.4C246.441 87.2 239.241 72.4 226.841 64.7C224.241 63.1 224.241 63.1 222.541 67.2Z" fill="black"/>
<path d="M124.941 116.5V121H133.441H141.941V116.5V112H133.441H124.941V116.5Z" fill="black"/>
</svg>
