<svg width="658" height="152" viewBox="0 0 658 152" fill="none" xmlns="http://www.w3.org/2000/svg">
<path d="M540.141 1.6C537.241 3.6 537.341 6.6 540.441 8.6C542.541 9.9 544.641 10.1 554.241 9.5L565.541 8.8L570.841 27.6C573.741 38 576.341 46.9 576.541 47.5C576.741 48 574.341 49.8 571.241 51.5C568.041 53.1 562.341 57.5 558.341 61.5C550.341 69.5 545.541 78.1 543.641 87.8L542.441 94H534.941H527.341L515.141 61.2C508.441 43.2 502.941 28.2 502.941 27.8C502.941 27.4 505.541 27 508.741 26.8C514.341 26.5 514.441 26.5 514.741 23.2C515.241 18.6 512.741 18 492.641 18C474.441 18 470.941 18.8 470.941 22.9C470.941 26.2 473.041 27 482.641 27C487.741 27 491.941 27.2 491.941 27.5C491.941 28 479.141 48.8 478.041 50.2C477.641 50.6 474.541 49.9 470.941 48.6C453.741 42.4 435.341 45.3 420.441 56.5C409.841 64.5 402.741 76.5 400.341 90.4C397.441 106.8 403.241 124.4 415.541 136.6L421.941 143H408.341C400.941 143 393.941 143.5 392.841 144C390.741 145.2 390.341 149 392.141 150.8C393.041 151.7 423.841 152 524.441 152C625.041 152 655.841 151.7 656.741 150.8C658.441 149.1 658.241 146.4 656.341 144.6C655.041 143.3 652.141 143 640.241 143H625.641L629.741 140C634.141 136.8 640.541 128.8 643.741 122.5C650.941 108 650.741 87.8 643.141 73.6C639.041 65.9 627.441 54.6 619.841 51C610.841 46.8 600.141 44.6 591.941 45.4L585.241 46L582.141 34.7C580.441 28.6 578.141 20.5 577.041 16.8L575.041 10L578.241 9.2C580.941 8.5 581.541 7.8 581.741 5.2C582.241 0.599998 579.741 -2.26498e-06 559.641 -2.26498e-06C545.641 -2.26498e-06 541.941 0.299998 540.141 1.6ZM505.441 60.5C509.741 72 514.341 84.3 515.541 87.7L517.941 94H512.041H506.241L505.541 89.7C503.841 78.9 497.441 66.8 489.441 59.5L485.141 55.5L490.641 46.7C493.741 41.8 496.541 38.2 496.941 38.7C497.341 39.1 501.141 48.9 505.441 60.5ZM461.041 55C467.341 56.2 471.941 57.9 471.941 59.1C471.941 59.5 466.541 68.6 459.941 79.1C444.141 104.3 443.041 102.4 473.841 102.8C500.341 103.1 498.541 102.2 494.841 113.2C486.141 139.1 455.541 150.8 431.041 137.5C424.041 133.6 416.441 125.4 412.641 117.3C409.641 110.8 409.441 109.9 409.441 98.5C409.441 86.9 409.541 86.2 412.641 79.9C421.841 61.3 441.241 51.3 461.041 55ZM606.241 55.5C621.941 59.6 634.441 71.6 638.541 86.6C639.741 91.3 640.141 95.2 639.741 102C639.241 109.9 638.641 112.1 635.541 118.5C627.341 135 611.541 143.9 592.241 142.8C579.041 142 566.741 134.9 558.741 123.3C555.541 118.6 551.941 109.1 551.941 105.3V103H574.741C598.641 103 599.941 102.8 599.941 98.6C599.941 97.4 597.341 87.3 594.041 76C588.941 58 588.441 55.4 589.841 54.8C592.641 53.6 600.341 53.9 606.241 55.5ZM582.841 69.7C584.741 76.2 587.041 84.3 588.041 87.7L589.841 94H570.741H551.641L552.241 89.9C552.941 84.3 557.941 74.6 563.041 68.7C566.741 64.4 575.941 58 578.441 58C579.041 58 580.941 63.3 582.841 69.7ZM488.441 71.4C491.641 75.6 495.741 85 496.541 90L497.241 94H479.141H461.041L469.041 81.2C473.541 74.2 477.741 67.5 478.541 66.2L480.041 63.9L482.941 66C484.641 67.2 487.041 69.6 488.441 71.4ZM542.941 105.4C542.941 106.8 544.041 111.4 545.441 115.7C548.141 124.5 554.141 133.5 561.041 139.3L565.441 143H524.741H484.041L490.441 136.5C497.841 128.9 503.441 118.7 505.241 109.2L506.441 103H524.641H542.941V105.4Z" fill="black"/>
<path d="M430.841 64.7C425.541 68.2 419.641 74.8 416.841 80.2C413.541 86.7 411.541 97.6 412.441 103.7C413.141 108.2 414.241 108.8 419.541 107.4C421.341 106.9 421.541 106.1 421.541 99.1C421.541 92.6 422.041 90.4 424.641 84.9C427.241 79.4 431.641 74.5 436.741 71.5C436.841 71.4 436.141 69.4 435.141 67.2C433.341 63.1 433.241 63.1 430.841 64.7Z" fill="black"/>
<path d="M613.541 67.2C612.641 69.5 612.041 71.4 612.241 71.5C616.341 73.7 621.441 79.2 623.841 84.2C626.541 89.5 626.941 91.4 626.941 98.5C626.941 106.2 627.041 106.8 629.241 107.4C634.941 108.9 635.641 108.4 636.141 102.4C637.441 87.2 630.241 72.4 617.841 64.7C615.241 63.1 615.241 63.1 613.541 67.2Z" fill="black"/>
<path d="M515.941 116.5V121H524.441H532.941V116.5V112H524.441H515.941V116.5Z" fill="black"/>
<path d="M194.468 32.2775C189.568 37.4775 193.868 45.8775 200.768 44.5775C204.568 43.7775 206.068 42.2775 206.868 38.4775C208.268 31.4775 199.368 27.0775 194.468 32.2775Z" fill="black"/>
<path d="M153.468 70.1775C153.768 101.377 154.068 106.977 155.468 109.977C158.468 116.377 160.468 117.477 170.368 117.777L179.268 118.177V114.177C179.268 110.277 179.168 110.277 175.168 109.677C172.868 109.377 170.068 108.177 168.868 106.977C166.868 104.977 166.768 103.977 166.468 69.4775L166.168 33.9775H159.668H153.168L153.468 70.1775Z" fill="black"/>
<path d="M11.7683 41.7775C9.56834 42.8775 6.66834 44.8775 5.36834 46.2775C2.06834 49.8775 0.268338 57.4775 1.36834 63.0775C1.76834 65.4775 2.16834 67.7775 2.26834 68.1775C2.26834 68.4775 3.46834 70.2775 4.86834 71.9775C7.66834 75.2775 13.6683 78.6775 22.7683 82.0775C25.8683 83.1775 30.1683 85.8775 32.3683 87.8775C36.0683 91.4775 36.2683 91.9775 36.2683 97.7775C36.2683 103.477 35.9683 104.177 32.7683 107.477C30.6683 109.577 28.0683 111.077 26.4683 111.177C20.6683 111.477 14.6683 110.777 12.4683 109.377C9.16834 107.277 6.26834 101.977 6.26834 98.1775C6.26834 95.1775 6.06834 94.9775 3.56834 95.5775C-0.131662 96.4775 -0.131662 96.4775 0.0683383 100.677C0.468338 105.977 3.56834 111.277 8.36834 114.577C12.2683 117.277 13.2683 117.477 21.1683 117.477C31.4683 117.477 35.7683 115.677 39.8683 109.777C43.7683 104.177 44.4683 94.1775 41.3683 88.1775C38.7683 83.1775 36.2683 81.3775 23.1683 75.1775C10.4683 69.2775 8.26834 66.9775 8.26834 59.2775C8.26834 54.3775 8.66834 53.3775 11.6683 50.3775C15.0683 46.9775 17.7683 46.2775 25.6683 46.8775C31.4683 47.3775 36.2683 52.9775 36.2683 59.2775C36.2683 61.3775 36.6683 61.5775 39.8683 61.1775L43.4683 60.7775L42.8683 56.3775C42.1683 50.9775 39.0683 46.0775 34.3683 42.9775C29.3683 39.5775 17.5683 39.0775 11.7683 41.7775Z" fill="black"/>
<path d="M287.268 48.4775V56.9775H283.268H279.268V61.4775V65.9775H283.268H287.268V85.3775C287.268 105.377 288.168 110.977 291.868 115.077C293.968 117.477 302.668 119.177 307.968 118.377C312.168 117.777 312.268 117.677 312.268 113.877C312.268 110.077 312.168 109.977 308.768 109.977C306.268 109.977 304.368 109.177 302.768 107.477C300.268 105.077 300.268 104.977 300.268 85.4775V65.9775H304.768H309.268V61.4775V56.9775H304.768H300.268V48.4775V39.9775H293.768H287.268V48.4775Z" fill="black"/>
<path d="M56.4683 45.1775C56.7683 49.3775 56.8683 49.4775 60.5683 49.7775L64.2683 50.0775V45.5775V40.9775H60.1683H56.1683L56.4683 45.1775Z" fill="black"/>
<path d="M81.2683 78.9775V116.977H84.7683H88.2683V78.9775V40.9775H84.7683H81.2683V78.9775Z" fill="black"/>
<path d="M103.968 60.1775L89.4684 79.2775L103.668 98.1775L117.768 116.977H122.068H126.368L113.668 100.177C106.668 90.9775 100.168 82.5775 99.1684 81.4775C97.3684 79.4775 97.6684 79.0775 111.768 60.6775C119.768 50.3775 126.268 41.7775 126.268 41.4775C126.268 41.1775 124.468 40.9775 122.368 40.9775H118.368L103.968 60.1775Z" fill="black"/>
<path d="M236.868 57.3775C231.268 59.4775 228.168 62.0775 225.568 66.5775C219.368 77.3775 225.268 86.3775 242.468 92.4775C246.668 93.9775 251.068 96.0775 252.268 97.1775C255.068 99.7775 254.568 103.677 251.068 106.277C247.468 108.977 237.268 109.077 232.468 106.577C228.668 104.577 228.368 104.677 225.768 109.477C223.868 113.177 223.868 113.177 225.768 114.577C228.868 116.877 234.268 117.977 241.868 117.977C253.468 117.977 260.868 114.377 263.868 107.277C266.768 100.377 264.668 92.2775 258.968 88.4775C257.568 87.5775 252.768 85.3775 248.268 83.4775C238.168 79.2775 236.268 77.6775 236.268 73.3775C236.268 68.6775 239.568 66.6775 247.068 66.8775C250.168 66.8775 254.268 67.4775 256.068 68.0775C257.868 68.6775 259.468 68.9775 259.568 68.7775C259.768 68.6775 260.568 66.7775 261.568 64.6775L263.268 60.8775L258.568 58.7775C252.468 56.0775 242.168 55.4775 236.868 57.3775Z" fill="black"/>
<path d="M193.268 87.4775V117.977H199.768H206.268V87.4775V56.9775H199.768H193.268V87.4775Z" fill="black"/>
<path d="M341.068 58.3775C336.368 59.6775 331.268 62.4775 331.268 63.7775C331.268 64.1775 332.268 65.7775 333.568 67.2775L335.768 70.0775L339.768 67.9775C342.368 66.6775 345.668 65.9775 349.368 65.9775C356.368 65.9775 358.168 67.6775 358.968 75.3775L359.568 80.9775H353.068C339.468 80.9775 329.568 86.7775 327.168 95.9775C323.968 108.177 331.968 118.277 344.768 118.277C350.468 118.277 358.568 115.077 360.468 111.977C361.468 110.377 361.968 110.577 365.268 114.077C369.768 118.777 371.668 118.977 373.768 114.877C375.168 112.377 375.168 111.577 374.068 110.277C373.168 109.177 372.568 103.177 372.168 89.9775C371.668 72.7775 371.368 70.7775 369.168 66.3775C364.968 57.8775 354.368 54.7775 341.068 58.3775ZM359.268 96.2775C359.268 100.677 358.768 104.177 358.068 105.177C352.868 111.477 342.268 111.577 339.368 105.277C337.168 100.577 337.968 96.0775 341.668 92.3775C344.868 89.1775 345.468 88.9775 352.168 88.9775H359.268V96.2775Z" fill="black"/>
<path d="M57.2683 89.9775V116.977H60.2683H63.2683V89.9775V62.9775H60.2683H57.2683V89.9775Z" fill="black"/>
</svg>
