<svg width="375" height="260" viewBox="0 0 375 260" fill="none" xmlns="http://www.w3.org/2000/svg">
<path d="M203.141 1.6C200.241 3.6 200.341 6.6 203.441 8.6C205.541 9.9 207.641 10.1 217.241 9.5L228.541 8.8L233.841 27.6C236.741 38 239.341 46.9 239.541 47.5C239.741 48 237.341 49.8 234.241 51.5C231.041 53.1 225.341 57.5 221.341 61.5C213.341 69.5 208.541 78.1 206.641 87.8L205.441 94H197.941H190.341L178.141 61.2C171.441 43.2 165.941 28.2 165.941 27.8C165.941 27.4 168.541 27 171.741 26.8C177.341 26.5 177.441 26.5 177.741 23.2C178.241 18.6 175.741 18 155.641 18C137.441 18 133.941 18.8 133.941 22.9C133.941 26.2 136.041 27 145.641 27C150.741 27 154.941 27.2 154.941 27.5C154.941 28 142.141 48.8 141.041 50.2C140.641 50.6 137.541 49.9 133.941 48.6C116.741 42.4 98.3414 45.3 83.4414 56.5C72.8414 64.5 65.7414 76.5 63.3414 90.4C60.4414 106.8 66.2414 124.4 78.5414 136.6L84.9414 143H71.3414C63.9414 143 56.9414 143.5 55.8414 144C53.7414 145.2 53.3414 149 55.1414 150.8C56.0414 151.7 86.8414 152 187.441 152C288.041 152 318.841 151.7 319.741 150.8C321.441 149.1 321.241 146.4 319.341 144.6C318.041 143.3 315.141 143 303.241 143H288.641L292.741 140C297.141 136.8 303.541 128.8 306.741 122.5C313.941 108 313.741 87.8 306.141 73.6C302.041 65.9 290.441 54.6 282.841 51C273.841 46.8 263.141 44.6 254.941 45.4L248.241 46L245.141 34.7C243.441 28.6 241.141 20.5 240.041 16.8L238.041 10L241.241 9.2C243.941 8.5 244.541 7.8 244.741 5.2C245.241 0.599998 242.741 -2.26498e-06 222.641 -2.26498e-06C208.641 -2.26498e-06 204.941 0.299998 203.141 1.6ZM168.441 60.5C172.741 72 177.341 84.3 178.541 87.7L180.941 94H175.041H169.241L168.541 89.7C166.841 78.9 160.441 66.8 152.441 59.5L148.141 55.5L153.641 46.7C156.741 41.8 159.541 38.2 159.941 38.7C160.341 39.1 164.141 48.9 168.441 60.5ZM124.041 55C130.341 56.2 134.941 57.9 134.941 59.1C134.941 59.5 129.541 68.6 122.941 79.1C107.141 104.3 106.041 102.4 136.841 102.8C163.341 103.1 161.541 102.2 157.841 113.2C149.141 139.1 118.541 150.8 94.0414 137.5C87.0414 133.6 79.4414 125.4 75.6414 117.3C72.6414 110.8 72.4414 109.9 72.4414 98.5C72.4414 86.9 72.5414 86.2 75.6414 79.9C84.8414 61.3 104.241 51.3 124.041 55ZM269.241 55.5C284.941 59.6 297.441 71.6 301.541 86.6C302.741 91.3 303.141 95.2 302.741 102C302.241 109.9 301.641 112.1 298.541 118.5C290.341 135 274.541 143.9 255.241 142.8C242.041 142 229.741 134.9 221.741 123.3C218.541 118.6 214.941 109.1 214.941 105.3V103H237.741C261.641 103 262.941 102.8 262.941 98.6C262.941 97.4 260.341 87.3 257.041 76C251.941 58 251.441 55.4 252.841 54.8C255.641 53.6 263.341 53.9 269.241 55.5ZM245.841 69.7C247.741 76.2 250.041 84.3 251.041 87.7L252.841 94H233.741H214.641L215.241 89.9C215.941 84.3 220.941 74.6 226.041 68.7C229.741 64.4 238.941 58 241.441 58C242.041 58 243.941 63.3 245.841 69.7ZM151.441 71.4C154.641 75.6 158.741 85 159.541 90L160.241 94H142.141H124.041L132.041 81.2C136.541 74.2 140.741 67.5 141.541 66.2L143.041 63.9L145.941 66C147.641 67.2 150.041 69.6 151.441 71.4ZM205.941 105.4C205.941 106.8 207.041 111.4 208.441 115.7C211.141 124.5 217.141 133.5 224.041 139.3L228.441 143H187.741H147.041L153.441 136.5C160.841 128.9 166.441 118.7 168.241 109.2L169.441 103H187.641H205.941V105.4Z" fill="black"/>
<path d="M93.8414 64.7C88.5414 68.2 82.6414 74.8 79.8414 80.2C76.5414 86.7 74.5414 97.6 75.4414 103.7C76.1414 108.2 77.2414 108.8 82.5414 107.4C84.3414 106.9 84.5414 106.1 84.5414 99.1C84.5414 92.6 85.0414 90.4 87.6414 84.9C90.2414 79.4 94.6414 74.5 99.7414 71.5C99.8414 71.4 99.1414 69.4 98.1414 67.2C96.3414 63.1 96.2414 63.1 93.8414 64.7Z" fill="black"/>
<path d="M276.541 67.2C275.641 69.5 275.041 71.4 275.241 71.5C279.341 73.7 284.441 79.2 286.841 84.2C289.541 89.5 289.941 91.4 289.941 98.5C289.941 106.2 290.041 106.8 292.241 107.4C297.941 108.9 298.641 108.4 299.141 102.4C300.441 87.2 293.241 72.4 280.841 64.7C278.241 63.1 278.241 63.1 276.541 67.2Z" fill="black"/>
<path d="M178.941 116.5V121H187.441H195.941V116.5V112H187.441H178.941V116.5Z" fill="black"/>
<path d="M194.468 173.277C189.568 178.477 193.868 186.877 200.768 185.577C204.568 184.777 206.068 183.277 206.868 179.477C208.268 172.477 199.368 168.077 194.468 173.277Z" fill="black"/>
<path d="M153.468 211.177C153.768 242.377 154.068 247.977 155.468 250.977C158.468 257.377 160.468 258.477 170.368 258.777L179.268 259.177V255.177C179.268 251.277 179.168 251.277 175.168 250.677C172.868 250.377 170.068 249.177 168.868 247.977C166.868 245.977 166.768 244.977 166.468 210.477L166.168 174.977H159.668H153.168L153.468 211.177Z" fill="black"/>
<path d="M11.7683 182.777C9.56834 183.877 6.66834 185.877 5.36834 187.277C2.06834 190.877 0.268338 198.477 1.36834 204.077C1.76834 206.477 2.16834 208.777 2.26834 209.177C2.26834 209.477 3.46834 211.277 4.86834 212.977C7.66834 216.277 13.6683 219.677 22.7683 223.077C25.8683 224.177 30.1683 226.877 32.3683 228.877C36.0683 232.477 36.2683 232.977 36.2683 238.777C36.2683 244.477 35.9683 245.177 32.7683 248.477C30.6683 250.577 28.0683 252.077 26.4683 252.177C20.6683 252.477 14.6683 251.777 12.4683 250.377C9.16834 248.277 6.26834 242.977 6.26834 239.177C6.26834 236.177 6.06834 235.977 3.56834 236.577C-0.131662 237.477 -0.131662 237.477 0.0683383 241.677C0.468338 246.977 3.56834 252.277 8.36834 255.577C12.2683 258.277 13.2683 258.477 21.1683 258.477C31.4683 258.477 35.7683 256.677 39.8683 250.777C43.7683 245.177 44.4683 235.177 41.3683 229.177C38.7683 224.177 36.2683 222.377 23.1683 216.177C10.4683 210.277 8.26834 207.977 8.26834 200.277C8.26834 195.377 8.66834 194.377 11.6683 191.377C15.0683 187.977 17.7683 187.277 25.6683 187.877C31.4683 188.377 36.2683 193.977 36.2683 200.277C36.2683 202.377 36.6683 202.577 39.8683 202.177L43.4683 201.777L42.8683 197.377C42.1683 191.977 39.0683 187.077 34.3683 183.977C29.3683 180.577 17.5683 180.077 11.7683 182.777Z" fill="black"/>
<path d="M287.268 189.477V197.977H283.268H279.268V202.477V206.977H283.268H287.268V226.377C287.268 246.377 288.168 251.977 291.868 256.077C293.968 258.477 302.668 260.177 307.968 259.377C312.168 258.777 312.268 258.677 312.268 254.877C312.268 251.077 312.168 250.977 308.768 250.977C306.268 250.977 304.368 250.177 302.768 248.477C300.268 246.077 300.268 245.977 300.268 226.477V206.977H304.768H309.268V202.477V197.977H304.768H300.268V189.477V180.977H293.768H287.268V189.477Z" fill="black"/>
<path d="M56.4683 186.178C56.7683 190.378 56.8683 190.478 60.5683 190.778L64.2683 191.078V186.578V181.978H60.1683H56.1683L56.4683 186.178Z" fill="black"/>
<path d="M81.2683 219.977V257.977H84.7683H88.2683V219.977V181.977H84.7683H81.2683V219.977Z" fill="black"/>
<path d="M103.968 201.177L89.4684 220.277L103.668 239.177L117.768 257.977H122.068H126.368L113.668 241.177C106.668 231.977 100.168 223.577 99.1684 222.477C97.3684 220.477 97.6684 220.077 111.768 201.677C119.768 191.377 126.268 182.777 126.268 182.477C126.268 182.177 124.468 181.977 122.368 181.977H118.368L103.968 201.177Z" fill="black"/>
<path d="M236.868 198.377C231.268 200.477 228.168 203.077 225.568 207.577C219.368 218.377 225.268 227.377 242.468 233.477C246.668 234.977 251.068 237.077 252.268 238.177C255.068 240.777 254.568 244.677 251.068 247.277C247.468 249.977 237.268 250.077 232.468 247.577C228.668 245.577 228.368 245.677 225.768 250.477C223.868 254.177 223.868 254.177 225.768 255.577C228.868 257.877 234.268 258.977 241.868 258.977C253.468 258.977 260.868 255.377 263.868 248.277C266.768 241.377 264.668 233.277 258.968 229.477C257.568 228.577 252.768 226.377 248.268 224.477C238.168 220.277 236.268 218.677 236.268 214.377C236.268 209.677 239.568 207.677 247.068 207.877C250.168 207.877 254.268 208.477 256.068 209.077C257.868 209.677 259.468 209.977 259.568 209.777C259.768 209.677 260.568 207.777 261.568 205.677L263.268 201.877L258.568 199.777C252.468 197.077 242.168 196.477 236.868 198.377Z" fill="black"/>
<path d="M193.268 228.477V258.977H199.768H206.268V228.477V197.977H199.768H193.268V228.477Z" fill="black"/>
<path d="M341.068 199.377C336.368 200.677 331.268 203.477 331.268 204.777C331.268 205.177 332.268 206.777 333.568 208.277L335.768 211.077L339.768 208.977C342.368 207.677 345.668 206.977 349.368 206.977C356.368 206.977 358.168 208.677 358.968 216.377L359.568 221.977H353.068C339.468 221.977 329.568 227.777 327.168 236.977C323.968 249.177 331.968 259.277 344.768 259.277C350.468 259.277 358.568 256.077 360.468 252.977C361.468 251.377 361.968 251.577 365.268 255.077C369.768 259.777 371.668 259.977 373.768 255.877C375.168 253.377 375.168 252.577 374.068 251.277C373.168 250.177 372.568 244.177 372.168 230.977C371.668 213.777 371.368 211.777 369.168 207.377C364.968 198.877 354.368 195.777 341.068 199.377ZM359.268 237.277C359.268 241.677 358.768 245.177 358.068 246.177C352.868 252.477 342.268 252.577 339.368 246.277C337.168 241.577 337.968 237.077 341.668 233.377C344.868 230.177 345.468 229.977 352.168 229.977H359.268V237.277Z" fill="black"/>
<path d="M57.2683 230.977V257.977H60.2683H63.2683V230.977V203.977H60.2683H57.2683V230.977Z" fill="black"/>
</svg>
