<?xml version="1.0" standalone="no"?>
<!DOCTYPE svg PUBLIC "-//W3C//DTD SVG 20010904//EN"
 "http://www.w3.org/TR/2001/REC-SVG-20010904/DTD/svg10.dtd">
<svg version="1.0" xmlns="http://www.w3.org/2000/svg"
 width="400.000000pt" height="383.000000pt" viewBox="0 0 400.000000 383.000000"
 preserveAspectRatio="xMidYMid meet">

<g transform="translate(0.000000,383.000000) scale(0.100000,-0.100000)"
fill="#000000" stroke="none">
<path d="M2132 3704 c-29 -20 -28 -50 3 -70 21 -13 42 -15 138 -9 l113 7 53
-188 c29 -104 55 -193 57 -199 2 -5 -22 -23 -53 -40 -32 -16 -89 -60 -129
-100 -80 -80 -128 -166 -147 -263 l-12 -62 -75 0 -76 0 -122 328 c-67 180
-122 330 -122 334 0 4 26 8 58 10 56 3 57 3 60 36 5 46 -20 52 -221 52 -182 0
-217 -8 -217 -49 0 -33 21 -41 117 -41 51 0 93 -2 93 -5 0 -5 -128 -213 -139
-227 -4 -4 -35 3 -71 16 -172 62 -356 33 -505 -79 -106 -80 -177 -200 -201
-339 -29 -164 29 -340 152 -462 l64 -64 -136 0 c-74 0 -144 -5 -155 -10 -21
-12 -25 -50 -7 -68 9 -9 317 -12 1323 -12 1006 0 1314 3 1323 12 17 17 15 44
-4 62 -13 13 -42 16 -161 16 l-146 0 41 30 c44 32 108 112 140 175 72 145 70
347 -6 489 -41 77 -157 190 -233 226 -90 42 -197 64 -279 56 l-67 -6 -31 113
c-17 61 -40 142 -51 179 l-20 68 32 8 c27 7 33 14 35 40 5 46 -20 52 -221 52
-140 0 -177 -3 -195 -16z m-347 -589 c43 -115 89 -238 101 -272 l24 -63 -59 0
-58 0 -7 43 c-17 108 -81 229 -161 302 l-43 40 55 88 c31 49 59 85 63 80 4 -4
42 -102 85 -218z m-444 55 c63 -12 109 -29 109 -41 0 -4 -54 -95 -120 -200
-158 -252 -169 -233 139 -237 265 -3 247 6 210 -104 -87 -259 -393 -376 -638
-243 -70 39 -146 121 -184 202 -30 65 -32 74 -32 188 0 116 1 123 32 186 92
186 286 286 484 249z m1452 -5 c157 -41 282 -161 323 -311 12 -47 16 -86 12
-154 -5 -79 -11 -101 -42 -165 -82 -165 -240 -254 -433 -243 -132 8 -255 79
-335 195 -32 47 -68 142 -68 180 l0 23 228 0 c239 0 252 2 252 44 0 12 -26
113 -59 226 -51 180 -56 206 -42 212 28 12 105 9 164 -7z m-234 -142 c19 -65
42 -146 52 -180 l18 -63 -191 0 -191 0 6 41 c7 56 57 153 108 212 37 43 129
107 154 107 6 0 25 -53 44 -117z m-944 -17 c32 -42 73 -136 81 -186 l7 -40
-181 0 -181 0 80 128 c45 70 87 137 95 150 l15 23 29 -21 c17 -12 41 -36 55
-54z m545 -340 c0 -14 11 -60 25 -103 27 -88 87 -178 156 -236 l44 -37 -407 0
-407 0 64 65 c74 76 130 178 148 273 l12 62 182 0 183 0 0 -24z"/>
<path d="M1039 3073 c-53 -35 -112 -101 -140 -155 -33 -65 -53 -174 -44 -235
7 -45 18 -51 71 -37 18 5 20 13 20 83 0 65 5 87 31 142 26 55 70 104 121 134
1 1 -6 21 -16 43 -18 41 -19 41 -43 25z"/>
<path d="M2866 3048 c-9 -23 -15 -42 -13 -43 41 -22 92 -77 116 -127 27 -53
31 -72 31 -143 0 -77 1 -83 23 -89 57 -15 64 -10 69 50 13 152 -59 300 -183
377 -26 16 -26 16 -43 -25z"/>
<path d="M1890 2555 l0 -45 85 0 85 0 0 45 0 45 -85 0 -85 0 0 -45z"/>
<path d="M2072 2027 c-49 -52 -6 -136 63 -123 38 8 53 23 61 61 14 70 -75 114
-124 62z"/>
<path d="M1662 1648 c3 -312 6 -368 20 -398 30 -64 50 -75 149 -78 l89 -4 0
40 c0 39 -1 39 -41 45 -23 3 -51 15 -63 27 -20 20 -21 30 -24 375 l-3 355 -65
0 -65 0 3 -362z"/>
<path d="M245 1932 c-22 -11 -51 -31 -64 -45 -33 -36 -51 -112 -40 -168 4 -24
8 -47 9 -51 0 -3 12 -21 26 -38 28 -33 88 -67 179 -101 31 -11 74 -38 96 -58
37 -36 39 -41 39 -99 0 -57 -3 -64 -35 -97 -21 -21 -47 -36 -63 -37 -58 -3
-118 4 -140 18 -33 21 -62 74 -62 112 0 30 -2 32 -27 26 -37 -9 -37 -9 -35
-51 4 -53 35 -106 83 -139 39 -27 49 -29 128 -29 103 0 146 18 187 77 39 56
46 156 15 216 -26 50 -51 68 -182 130 -127 59 -149 82 -149 159 0 49 4 59 34
89 34 34 61 41 140 35 58 -5 106 -61 106 -124 0 -21 4 -23 36 -19 l36 4 -6 44
c-7 54 -38 103 -85 134 -50 34 -168 39 -226 12z"/>
<path d="M3000 1865 l0 -85 -40 0 -40 0 0 -45 0 -45 40 0 40 0 0 -194 c0 -200
9 -256 46 -297 21 -24 108 -41 161 -33 42 6 43 7 43 45 0 38 -1 39 -35 39 -25
0 -44 8 -60 25 -25 24 -25 25 -25 220 l0 195 45 0 45 0 0 45 0 45 -45 0 -45 0
0 85 0 85 -65 0 -65 0 0 -85z"/>
<path d="M692 1898 c3 -42 4 -43 41 -46 l37 -3 0 45 0 46 -41 0 -40 0 3 -42z"/>
<path d="M940 1560 l0 -380 35 0 35 0 0 380 0 380 -35 0 -35 0 0 -380z"/>
<path d="M1167 1748 l-145 -191 142 -189 141 -188 43 0 43 0 -127 168 c-70 92
-135 176 -145 187 -18 20 -15 24 126 208 80 103 145 189 145 192 0 3 -18 5
-39 5 l-40 0 -144 -192z"/>
<path d="M2496 1776 c-56 -21 -87 -47 -113 -92 -62 -108 -3 -198 169 -259 42
-15 86 -36 98 -47 28 -26 23 -65 -12 -91 -36 -27 -138 -28 -186 -3 -38 20 -41
19 -67 -29 -19 -37 -19 -37 0 -51 31 -23 85 -34 161 -34 116 0 190 36 220 107
29 69 8 150 -49 188 -14 9 -62 31 -107 50 -101 42 -120 58 -120 101 0 47 33
67 108 65 31 0 72 -6 90 -12 18 -6 34 -9 35 -7 2 1 10 20 20 41 l17 38 -47 21
c-61 27 -164 33 -217 14z"/>
<path d="M2060 1475 l0 -305 65 0 65 0 0 305 0 305 -65 0 -65 0 0 -305z"/>
<path d="M3538 1766 c-47 -13 -98 -41 -98 -54 0 -4 10 -20 23 -35 l22 -28 40
21 c26 13 59 20 96 20 70 0 88 -17 96 -94 l6 -56 -65 0 c-136 0 -235 -58 -259
-150 -32 -122 48 -223 176 -223 57 0 138 32 157 63 10 16 15 14 48 -21 45 -47
64 -49 85 -8 14 25 14 33 3 46 -9 11 -15 71 -19 203 -5 172 -8 192 -30 236
-42 85 -148 116 -281 80z m182 -379 c0 -44 -5 -79 -12 -89 -52 -63 -158 -64
-187 -1 -22 47 -14 92 23 129 32 32 38 34 105 34 l71 0 0 -73z"/>
<path d="M700 1450 l0 -270 30 0 30 0 0 270 0 270 -30 0 -30 0 0 -270z"/>
<path d="M1330 1029 c-80 -15 -183 -74 -241 -137 -46 -50 -119 -180 -119 -211
0 -7 51 -11 150 -11 l150 0 0 -90 0 -90 -150 0 c-82 0 -150 -3 -150 -7 0 -21
44 -121 69 -157 64 -92 149 -154 260 -191 86 -28 227 -18 312 23 80 38 143 93
194 166 l38 56 136 0 136 0 32 -53 c83 -138 228 -217 400 -217 129 0 269 68
345 167 37 49 98 167 98 191 0 9 -37 12 -150 12 l-150 0 0 90 0 90 150 0 c89
0 150 4 150 10 0 21 -43 115 -72 158 -92 134 -220 202 -384 202 -156 0 -297
-76 -381 -207 l-34 -53 -137 0 -138 0 -23 40 c-92 165 -298 256 -491 219z
m240 -131 c74 -34 136 -96 172 -174 l30 -64 208 0 207 0 32 64 c38 77 92 128
177 168 59 27 72 30 152 26 104 -4 157 -26 235 -99 l52 -48 -122 -1 -123 0 0
-195 0 -195 120 0 c66 0 120 -4 120 -9 0 -4 -24 -30 -53 -58 -72 -68 -128 -88
-247 -88 -85 0 -101 3 -153 30 -72 36 -137 106 -167 180 l-22 55 -207 0 -208
0 -34 -67 c-25 -50 -49 -80 -93 -115 -73 -58 -129 -78 -222 -78 -104 0 -172
28 -243 99 l-56 56 128 3 127 3 0 194 0 194 -121 3 -122 3 28 33 c31 37 97 78
158 98 65 21 181 13 247 -18z"/>
</g>
</svg>
