<?xml version="1.0" standalone="no"?>
<!DOCTYPE svg PUBLIC "-//W3C//DTD SVG 20010904//EN"
 "http://www.w3.org/TR/2001/REC-SVG-20010904/DTD/svg10.dtd">
<svg version="1.0" xmlns="http://www.w3.org/2000/svg"
 width="797.000000pt" height="802.000000pt" viewBox="0 0 797.000000 802.000000"
 preserveAspectRatio="xMidYMid meet">

<g transform="translate(0.000000,802.000000) scale(0.100000,-0.100000)"
fill="#000000" stroke="none">
<path d="M2900 7993 c-1353 -127 -2470 -1085 -2794 -2393 -186 -750 -97 -1521
255 -2212 225 -440 554 -823 960 -1120 447 -326 987 -531 1548 -588 132 -13
488 -13 622 0 1247 124 2306 971 2699 2160 201 609 211 1273 29 1896 -249 852
-873 1581 -1683 1964 -282 134 -566 219 -901 272 -103 16 -188 21 -410 23
-154 1 -300 1 -325 -2z m576 -757 c758 -111 1409 -555 1787 -1216 577 -1010
351 -2294 -538 -3058 -259 -223 -591 -402 -913 -492 -1144 -323 -2341 210
-2863 1275 -414 847 -306 1851 279 2589 86 109 266 289 377 379 358 289 799
477 1235 526 52 6 111 13 130 15 71 8 408 -4 506 -18z"/>
<path d="M6026 3003 c-55 -116 -218 -332 -376 -497 -152 -160 -495 -441 -655
-538 -30 -18 -53 -36 -52 -39 1 -4 373 -384 827 -845 544 -552 852 -858 904
-896 97 -72 237 -142 331 -164 86 -20 231 -23 305 -5 160 39 320 148 447 305
252 313 275 619 70 926 -27 41 -1764 1790 -1778 1790 -3 0 -13 -17 -23 -37z"/>
</g>
</svg>
