<svg width="375" height="89" viewBox="0 0 375 89" fill="none" xmlns="http://www.w3.org/2000/svg">
<path d="M194.468 2.27747C189.568 7.47747 193.868 15.8775 200.768 14.5775C204.568 13.7775 206.068 12.2775 206.868 8.47747C208.268 1.47747 199.368 -2.92253 194.468 2.27747Z" fill="black"/>
<path d="M153.468 40.1775C153.768 71.3775 154.068 76.9775 155.468 79.9775C158.468 86.3775 160.468 87.4775 170.368 87.7775L179.268 88.1775V84.1775C179.268 80.2775 179.168 80.2775 175.168 79.6775C172.868 79.3775 170.068 78.1775 168.868 76.9775C166.868 74.9775 166.768 73.9775 166.468 39.4775L166.168 3.9775H159.668H153.168L153.468 40.1775Z" fill="black"/>
<path d="M11.7683 11.7775C9.56834 12.8775 6.66834 14.8775 5.36834 16.2775C2.06834 19.8775 0.268338 27.4775 1.36834 33.0775C1.76834 35.4775 2.16834 37.7775 2.26834 38.1775C2.26834 38.4775 3.46834 40.2775 4.86834 41.9775C7.66834 45.2775 13.6683 48.6775 22.7683 52.0775C25.8683 53.1775 30.1683 55.8775 32.3683 57.8775C36.0683 61.4775 36.2683 61.9775 36.2683 67.7775C36.2683 73.4775 35.9683 74.1775 32.7683 77.4775C30.6683 79.5775 28.0683 81.0775 26.4683 81.1775C20.6683 81.4775 14.6683 80.7775 12.4683 79.3775C9.16834 77.2775 6.26834 71.9775 6.26834 68.1775C6.26834 65.1775 6.06834 64.9775 3.56834 65.5775C-0.131662 66.4775 -0.131662 66.4775 0.0683383 70.6775C0.468338 75.9775 3.56834 81.2775 8.36834 84.5775C12.2683 87.2775 13.2683 87.4775 21.1683 87.4775C31.4683 87.4775 35.7683 85.6775 39.8683 79.7775C43.7683 74.1775 44.4683 64.1775 41.3683 58.1775C38.7683 53.1775 36.2683 51.3775 23.1683 45.1775C10.4683 39.2775 8.26834 36.9775 8.26834 29.2775C8.26834 24.3775 8.66834 23.3775 11.6683 20.3775C15.0683 16.9775 17.7683 16.2775 25.6683 16.8775C31.4683 17.3775 36.2683 22.9775 36.2683 29.2775C36.2683 31.3775 36.6683 31.5775 39.8683 31.1775L43.4683 30.7775L42.8683 26.3775C42.1683 20.9775 39.0683 16.0775 34.3683 12.9775C29.3683 9.57748 17.5683 9.07748 11.7683 11.7775Z" fill="black"/>
<path d="M287.268 18.4775V26.9775H283.268H279.268V31.4775V35.9775H283.268H287.268V55.3775C287.268 75.3775 288.168 80.9775 291.868 85.0775C293.968 87.4775 302.668 89.1775 307.968 88.3775C312.168 87.7775 312.268 87.6775 312.268 83.8775C312.268 80.0775 312.168 79.9775 308.768 79.9775C306.268 79.9775 304.368 79.1775 302.768 77.4775C300.268 75.0775 300.268 74.9775 300.268 55.4775V35.9775H304.768H309.268V31.4775V26.9775H304.768H300.268V18.4775V9.97748H293.768H287.268V18.4775Z" fill="black"/>
<path d="M56.4683 15.1775C56.7683 19.3775 56.8683 19.4775 60.5683 19.7775L64.2683 20.0775V15.5775V10.9775H60.1683H56.1683L56.4683 15.1775Z" fill="black"/>
<path d="M81.2683 48.9775V86.9775H84.7683H88.2683V48.9775V10.9775H84.7683H81.2683V48.9775Z" fill="black"/>
<path d="M103.968 30.1775L89.4684 49.2775L103.668 68.1775L117.768 86.9775H122.068H126.368L113.668 70.1775C106.668 60.9775 100.168 52.5775 99.1684 51.4775C97.3684 49.4775 97.6684 49.0775 111.768 30.6775C119.768 20.3775 126.268 11.7775 126.268 11.4775C126.268 11.1775 124.468 10.9775 122.368 10.9775H118.368L103.968 30.1775Z" fill="black"/>
<path d="M236.868 27.3775C231.268 29.4775 228.168 32.0775 225.568 36.5775C219.368 47.3775 225.268 56.3775 242.468 62.4775C246.668 63.9775 251.068 66.0775 252.268 67.1775C255.068 69.7775 254.568 73.6775 251.068 76.2775C247.468 78.9775 237.268 79.0775 232.468 76.5775C228.668 74.5775 228.368 74.6775 225.768 79.4775C223.868 83.1775 223.868 83.1775 225.768 84.5775C228.868 86.8775 234.268 87.9775 241.868 87.9775C253.468 87.9775 260.868 84.3775 263.868 77.2775C266.768 70.3775 264.668 62.2775 258.968 58.4775C257.568 57.5775 252.768 55.3775 248.268 53.4775C238.168 49.2775 236.268 47.6775 236.268 43.3775C236.268 38.6775 239.568 36.6775 247.068 36.8775C250.168 36.8775 254.268 37.4775 256.068 38.0775C257.868 38.6775 259.468 38.9775 259.568 38.7775C259.768 38.6775 260.568 36.7775 261.568 34.6775L263.268 30.8775L258.568 28.7775C252.468 26.0775 242.168 25.4775 236.868 27.3775Z" fill="black"/>
<path d="M193.268 57.4775V87.9775H199.768H206.268V57.4775V26.9775H199.768H193.268V57.4775Z" fill="black"/>
<path d="M341.068 28.3775C336.368 29.6775 331.268 32.4775 331.268 33.7775C331.268 34.1775 332.268 35.7775 333.568 37.2775L335.768 40.0775L339.768 37.9775C342.368 36.6775 345.668 35.9775 349.368 35.9775C356.368 35.9775 358.168 37.6775 358.968 45.3775L359.568 50.9775H353.068C339.468 50.9775 329.568 56.7775 327.168 65.9775C323.968 78.1775 331.968 88.2775 344.768 88.2775C350.468 88.2775 358.568 85.0775 360.468 81.9775C361.468 80.3775 361.968 80.5775 365.268 84.0775C369.768 88.7775 371.668 88.9775 373.768 84.8775C375.168 82.3775 375.168 81.5775 374.068 80.2775C373.168 79.1775 372.568 73.1775 372.168 59.9775C371.668 42.7775 371.368 40.7775 369.168 36.3775C364.968 27.8775 354.368 24.7775 341.068 28.3775ZM359.268 66.2775C359.268 70.6775 358.768 74.1775 358.068 75.1775C352.868 81.4775 342.268 81.5775 339.368 75.2775C337.168 70.5775 337.968 66.0775 341.668 62.3775C344.868 59.1775 345.468 58.9775 352.168 58.9775H359.268V66.2775Z" fill="black"/>
<path d="M57.2683 59.9775V86.9775H60.2683H63.2683V59.9775V32.9775H60.2683H57.2683V59.9775Z" fill="black"/>
</svg>
